PathFileType  4	(X/Y/Z) C:\Users\antoi\Documents\MyRepositories\mobilecap\ResultsAnalysis
DataRate	CameraRate	NumFrames	NumMarkers	Units	OrigDataRate	OrigDataStartFrame	OrigNumFrames
100.0	100.0	4	51	mm	100.0	1	260
Frame#	Time	r_knee			r_shank_antsup			r_ankle			r_calc			r_5meta			r_toe			L_knee			L_shank_antsup			L_ankle			L_calc			L_5meta			L_toe			r_sh2			r_sh3			r_sh4			L_sh2			L_sh3			r_thigh1			r_thigh2			r_thigh3			r_thigh4			r_thigh5			L_thigh1			L_thigh2			L_thigh3			L_thigh4			r.ASIS			r.PSIS			L.ASIS			L.PSIS			C7			R_Shoulder			L_Shoulder			R_Sternum			L_Sternum			R_humerus			R_elbow_med			R_elbow_lat			R_forearm			R_wrist_radius			R_wrist_ulna			L_humerus			L_elbow_med			L_elbow_lat			L_forearm			L_wrist_radius			L_wrist_ulna			R_HJC			L_HJC			R_HJC_reg			L_HJC_reg			
		X1	Y1	Z1	X2	Y2	Z2	X3	Y3	Z3	X4	Y4	Z4	X5	Y5	Z5	X6	Y6	Z6	X7	Y7	Z7	X8	Y8	Z8	X9	Y9	Z9	X10	Y10	Z10	X11	Y11	Z11	X12	Y12	Z12	X13	Y13	Z13	X14	Y14	Z14	X15	Y15	Z15	X16	Y16	Z16	X17	Y17	Z17	X18	Y18	Z18	X19	Y19	Z19	X20	Y20	Z20	X21	Y21	Z21	X22	Y22	Z22	X23	Y23	Z23	X24	Y24	Z24	X25	Y25	Z25	X26	Y26	Z26	X27	Y27	Z27	X28	Y28	Z28	X29	Y29	Z29	X30	Y30	Z30	X31	Y31	Z31	X32	Y32	Z32	X33	Y33	Z33	X34	Y34	Z34	X35	Y35	Z35	X36	Y36	Z36	X37	Y37	Z37	X38	Y38	Z38	X39	Y39	Z39	X40	Y40	Z40	X41	Y41	Z41	X42	Y42	Z42	X43	Y43	Z43	X44	Y44	Z44	X45	Y45	Z45	X46	Y46	Z46	X47	Y47	Z47	X48	Y48	Z48	X49	Y49	Z49	X50	Y50	Z50	X51	Y51	Z51	

1	0.00000000	-1203.30344	807.09289	-440.43755	-1178.60221	710.45631	-449.29933	-1281.78772	401.17697	-468.81909	-1343.47059	365.92183	-517.16830	-1161.86914	350.41830	-430.01227	-1128.78431	378.22867	-484.81927	-1203.79246	812.21197	-721.60877	-1177.86985	727.54649	-708.62323	-1270.02708	405.52411	-705.26940	-1342.73279	361.78268	-663.32843	-1163.75342	350.53458	-743.30151	-1118.63918	373.97986	-685.66875	-1196.85215	598.68183	-455.45686	-1241.33418	719.01487	-408.03955	-1266.21649	605.45075	-409.67517	-1255.61924	748.93608	-750.09814	-1273.44798	628.32873	-755.07309	-1125.20457	1081.96264	-414.91462	-1127.53662	972.19400	-429.25688	-1180.50522	944.93992	-397.15594	-1238.45709	1077.66650	-396.48629	-1232.84614	962.64249	-414.29742	-1110.92763	1054.79483	-737.48351	-1109.96812	916.39951	-713.18950	-1213.62877	1049.54051	-776.07619	-1214.67821	919.28129	-744.23908	-1084.53030	1272.62671	-456.09190	-1289.58045	1322.41480	-538.64007	-1086.24038	1275.12120	-712.44189	-1288.50331	1322.38611	-632.55389	-1254.93819	1772.98377	-585.76924	-1187.43402	1749.21581	-418.55964	-1169.10352	1744.46471	-736.99465	-1126.84752	1705.89050	-557.94900	-1126.86802	1706.91246	-601.18060	-1140.95024	1616.79004	-372.40813	-1222.06173	1413.34848	-405.11053	-1195.32775	1422.06770	-345.06006	-1134.98156	1360.11354	-337.75853	-1082.99340	1200.93214	-382.08520	-1107.54334	1198.27787	-338.44207	-1130.48367	1604.84472	-789.68119	-1226.06301	1398.66406	-761.75850	-1169.00468	1415.08413	-819.51644	-1114.30325	1361.26333	-818.01810	-1064.59858	1191.48101	-779.56498	-1087.50511	1192.75525	-826.78491	-1175.62359	1192.66480	-483.86798	-1174.36855	1194.91478	-673.41299	-1165.53624	1202.68960	-493.25701	-1163.59569	1202.63792	-662.44865	
2	0.01000000	-1203.16780	807.19793	-440.53390	-1178.54438	710.44465	-449.39510	-1281.74648	401.22467	-468.78804	-1343.50655	365.92342	-517.29638	-1161.86595	350.42667	-430.02375	-1128.80230	378.22767	-484.83620	-1203.70562	811.95047	-721.45689	-1177.79471	727.42699	-708.70827	-1270.04024	405.49010	-705.28223	-1342.72598	361.79766	-663.39562	-1163.72836	350.65263	-743.45029	-1118.59962	373.97613	-685.63718	-1197.02785	598.71563	-455.18105	-1242.19700	718.22780	-408.13827	-1266.28758	605.31500	-409.69137	-1255.57990	748.87788	-750.12260	-1273.42951	628.32279	-755.17456	-1125.20955	1081.94983	-414.91544	-1127.69806	972.23095	-429.14305	-1180.53971	944.90640	-397.23286	-1238.48138	1077.64323	-396.49961	-1232.85173	962.61289	-414.25235	-1110.79589	1054.63121	-737.30587	-1109.89034	916.40924	-713.36508	-1213.58517	1049.48857	-776.10317	-1214.58784	919.25692	-744.38615	-1084.63587	1272.70366	-456.23543	-1289.66057	1322.43769	-538.85564	-1086.22299	1275.18431	-712.41061	-1288.48988	1322.44104	-632.70942	-1254.65294	1773.04047	-585.58927	-1187.09318	1749.22517	-418.75174	-1168.88776	1744.46117	-736.98302	-1126.58422	1705.96424	-557.93685	-1126.64204	1706.99519	-601.28185	-1140.64378	1616.77599	-372.39129	-1221.38070	1413.20386	-405.58065	-1195.10720	1422.18442	-345.07212	-1134.69128	1360.13750	-337.77466	-1082.91972	1200.90559	-382.19266	-1107.38681	1198.30338	-338.49116	-1130.13143	1604.81881	-789.71864	-1225.86619	1398.59497	-761.55306	-1168.83107	1415.06596	-819.48913	-1114.13562	1361.24591	-817.91929	-1064.33511	1191.46959	-779.42541	-1087.21333	1192.82421	-826.79976	-1175.70749	1192.72212	-483.98069	-1174.34136	1194.96986	-673.52494	-1165.62333	1202.74415	-493.47535	-1163.51438	1202.75021	-662.54897	
3	0.02000000	-1203.12896	807.23047	-440.57055	-1178.47517	710.43223	-449.44444	-1281.76445	401.19960	-468.77581	-1343.50875	365.95919	-517.37983	-1161.87040	350.42626	-430.02953	-1128.83517	378.24274	-484.83048	-1203.60149	811.82052	-721.47345	-1177.70561	727.32254	-708.83386	-1270.04920	405.47100	-705.30035	-1342.73040	361.79339	-663.43502	-1163.72844	350.69004	-743.50635	-1118.56539	373.97418	-685.62449	-1196.99093	598.70544	-455.17926	-1241.66593	718.54573	-408.17411	-1266.29881	605.24929	-409.69653	-1255.48756	748.81820	-750.19676	-1273.31113	628.40135	-755.49926	-1125.24556	1081.98303	-414.79706	-1127.71830	972.14656	-429.17378	-1180.55043	944.81199	-397.31922	-1238.42436	1077.58650	-396.49341	-1232.86761	962.60985	-414.19008	-1110.73145	1054.56475	-737.26423	-1109.80220	916.40921	-713.43029	-1213.53426	1049.40839	-776.11437	-1214.53370	919.21616	-744.44997	-1084.71462	1272.77025	-456.33333	-1289.74371	1322.46163	-539.03891	-1086.21756	1275.22677	-712.38590	-1288.49741	1322.45782	-632.75692	-1254.34669	1773.06876	-585.47407	-1186.65658	1749.22992	-418.75548	-1168.62959	1744.45791	-737.02129	-1126.29270	1706.04383	-557.86981	-1126.35150	1707.03940	-601.25589	-1140.27559	1616.80322	-372.31692	-1220.95793	1413.25078	-405.75168	-1194.88267	1422.28215	-345.19279	-1134.46232	1360.13402	-337.76184	-1082.83157	1200.88122	-382.23729	-1107.24992	1198.29176	-338.54622	-1129.81979	1604.81503	-789.72394	-1225.70460	1398.54502	-761.45395	-1168.67856	1415.03674	-819.39697	-1113.94038	1361.24711	-817.86265	-1064.10369	1191.47398	-779.32442	-1087.01754	1192.82299	-826.77316	-1175.76872	1192.76994	-484.04354	-1174.33176	1195.00209	-673.58746	-1165.70848	1202.82225	-493.61300	-1163.46113	1202.81534	-662.60345	
4	0.03000000	-1203.14275	807.22114	-440.56344	-1178.41362	710.41650	-449.42615	-1281.79912	401.14937	-468.76364	-1343.51265	365.98451	-517.38000	-1161.87302	350.42328	-430.02720	-1128.86391	378.26039	-484.81412	-1203.48643	811.77845	-721.59251	-1177.61896	727.23958	-708.89749	-1270.05567	405.46809	-705.32409	-1342.74095	361.78122	-663.46935	-1163.74404	350.67466	-743.49419	-1118.55920	373.97791	-685.62543	-1196.87308	598.65792	-455.29542	-1240.79981	719.13462	-408.13304	-1266.24549	605.28118	-409.66693	-1255.34828	748.76650	-750.38093	-1273.16371	628.46040	-755.78964	-1125.26278	1082.02830	-414.58823	-1127.61005	972.03637	-429.36319	-1180.51578	944.65549	-397.42070	-1238.35306	1077.46245	-396.47776	-1232.85644	962.56262	-414.18118	-1110.70119	1054.54661	-737.30158	-1109.74593	916.37381	-713.37889	-1213.46917	1049.30936	-776.11981	-1214.49371	919.15674	-744.46490	-1084.77869	1272.83219	-456.39105	-1289.81880	1322.49316	-539.16178	-1086.22124	1275.26899	-712.35789	-1288.51362	1322.44303	-632.74430	-1253.96546	1773.09237	-585.46041	-1186.15909	1749.19790	-418.64168	-1168.33617	1744.44638	-737.08099	-1125.96249	1706.07679	-557.81814	-1126.01732	1707.03228	-601.19977	-1139.85651	1616.80723	-372.24988	-1220.72432	1413.42039	-405.72587	-1194.64435	1422.40193	-345.30456	-1134.26647	1360.10121	-337.76691	-1082.73361	1200.84140	-382.24125	-1107.13740	1198.26360	-338.57645	-1129.56176	1604.80784	-789.68182	-1225.57196	1398.51747	-761.41798	-1168.52846	1415.00738	-819.27606	-1113.69682	1361.24859	-817.88254	-1063.92033	1191.48326	-779.25674	-1086.87480	1192.79915	-826.72399	-1175.80868	1192.81342	-484.06468	-1174.32948	1195.02567	-673.60852	-1165.79352	1202.94277	-493.67302	-1163.43748	1202.85223	-662.60502	
